
<!-- Generator: visioncortex VTracer 0.6.4 -->
<svg version="1.1" xmlns="http://www.w3.org/2000/svg" viewBox="0 0 1414 1414" preserveAspectRatio="xMidYMid meet">
<path d="M0 0 C312.18 0 624.36 0 946 0 C946 116.82 946 233.64 946 354 C944.088 355.912 941.248 355.126 938.703 355.134 C937.332 355.13 937.332 355.13 935.934 355.127 C934.971 355.129 934.007 355.13 933.015 355.132 C929.761 355.136 926.508 355.133 923.254 355.129 C920.932 355.131 918.61 355.133 916.288 355.135 C909.962 355.139 903.636 355.137 897.309 355.134 C891.372 355.132 885.435 355.134 879.499 355.135 C867.022 355.138 854.545 355.135 842.069 355.129 C831.355 355.125 820.64 355.126 809.926 355.13 C797.497 355.136 785.068 355.138 772.639 355.135 C766.055 355.133 759.471 355.133 752.887 355.136 C746.698 355.139 740.508 355.137 734.319 355.131 C732.041 355.13 729.763 355.13 727.486 355.133 C724.388 355.135 721.291 355.132 718.193 355.127 C717.281 355.129 716.37 355.131 715.43 355.134 C709.228 355.114 709.228 355.114 707 354 C707 316.05 707 278.1 707 239 C514.28 239 321.56 239 123 239 C123 314.9 123 390.8 123 469 C238.83 469 354.66 469 474 469 C474 548.53 474 628.06 474 710 C358.17 710 242.34 710 123 710 C123 786.89 123 863.78 123 943 C394.59 943 666.18 943 946 943 C946 1020.88 946 1098.76 946 1179 C673.42 1179 400.84 1179 120 1179 C120 1102.11 120 1025.22 120 946 C42.12 946 -35.76 946 -116 946 C-116 672.1 -116 398.2 -116 116 C-77.72 116 -39.44 116 0 116 C0 77.72 0 39.44 0 0 Z M121 237 C121 314.22 121 391.44 121 471 C121.33 471 121.66 471 122 471 C122 393.78 122 316.56 122 237 C121.67 237 121.34 237 121 237 Z M123 237 C123 237.33 123 237.66 123 238 C315.72 238 508.44 238 707 238 C707 237.67 707 237.34 707 237 C514.28 237 321.56 237 123 237 Z M121 708 C121 785.55 121 863.1 121 943 C121.33 943 121.66 943 122 943 C122 865.45 122 787.9 122 708 C121.67 708 121.34 708 121 708 Z " fill="white" transform="translate(233,117)"/>
<path d="M0 0 C311.19 0 622.38 0 943 0 C943 0.33 943 0.66 943 1 C631.81 1 320.62 1 0 1 C0 0.67 0 0.34 0 0 Z " fill="white" transform="translate(235,115)"/>
<path d="M0 0 C0.33 0 0.66 0 1 0 C1 272.58 1 545.16 1 826 C0.67 826 0.34 826 0 826 C0 553.42 0 280.84 0 0 Z " fill="white" transform="translate(115,235)"/>
<path d="M0 0 C272.25 0 544.5 0 825 0 C825 0.33 825 0.66 825 1 C552.75 1 280.5 1 0 1 C0 0.67 0 0.34 0 0 Z " fill="white" transform="translate(353,1297)"/>
<path d="M0 0 C0.33 0 0.66 0 1 0 C1 116.49 1 232.98 1 353 C0.67 353 0.34 353 0 353 C0 236.51 0 120.02 0 0 Z " fill="white" transform="translate(1180,118)"/>
<path d="M0 0 C0.33 0 0.66 0 1 0 C1 78.21 1 156.42 1 237 C0.67 237 0.34 237 0 237 C0 158.79 0 80.58 0 0 Z " fill="white" transform="translate(708,588)"/>
<path d="M0 0 C0.33 0 0.66 0 1 0 C1 77.88 1 155.76 1 236 C0.67 236 0.34 236 0 236 C0 158.12 0 80.24 0 0 Z " fill="white" transform="translate(1180,1060)"/>
<path d="M0 0 C77.88 0 155.76 0 236 0 C236 0.33 236 0.66 236 1 C158.12 1 80.24 1 0 1 C0 0.67 0 0.34 0 0 Z " fill="white" transform="translate(942,473)"/>
</svg>